<?xml version="1.0" encoding="UTF-8"?>
<svg id="Layer_1" data-name="Layer 1" xmlns="http://www.w3.org/2000/svg" viewBox="0 0 193.87 101.39">
  <defs>
    <style>
      .cls-1 {
        fill: #231f20;
      }

      .cls-2 {
        fill: #fff;
      }

      .cls-3 {
        fill: #00aeef;
      }
    </style>
  </defs>
  <g>
    <path class="cls-3" d="M31.63,37.89c0,1.39-1.12,2.51-2.51,2.51s-2.5-1.12-2.5-2.51,1.12-2.51,2.5-2.51,2.51,1.13,2.51,2.51Z"/>
    <path class="cls-3" d="M43.92,43.72c.11.25,0,.55-.25.66-1.81.81-3.81,1.24-5.79,1.24s-3.98-.43-5.78-1.24c-.26-.11-.37-.41-.26-.66.12-.25.41-.37.67-.25,3.35,1.51,7.39,1.5,10.75,0,.25-.12.55,0,.66.25Z"/>
    <path class="cls-3" d="M49.15,37.89c0,1.39-1.12,2.51-2.51,2.51s-2.5-1.12-2.5-2.51,1.12-2.51,2.5-2.51,2.51,1.13,2.51,2.51Z"/>
    <path class="cls-3" d="M38.76,17.37l-.85-14.96c.65-.02,1.17-.55,1.17-1.21s-.54-1.2-1.2-1.2-1.21.54-1.21,1.2.52,1.19,1.18,1.21l-.85,14.96C16.49,17.67,0,28.64,0,42.12c0,8.03,5.85,15.17,14.91,19.69,2.37,1.19,4.96,2.19,7.73,2.99,1.03.3,1.71,1.29,1.63,2.37l-.93,13.83,12.89-12.52c1.02-.99,2.36-1.58,3.77-1.64,19.93-.72,35.76-11.51,35.76-24.72s-16.49-24.45-37-24.75ZM57.87,47.5c-1.8,1.79-4.27,2.91-7,2.91h-25.98c-5.45,0-9.91-4.46-9.91-9.91,0-2.73,1.12-5.2,2.91-7,1.8-1.79,4.27-2.91,7-2.91h25.98c5.45,0,9.91,4.46,9.91,9.91,0,2.73-1.12,5.2-2.91,7Z"/>
    <path class="cls-2" d="M31.63,37.89c0,1.39-1.12,2.51-2.51,2.51s-2.5-1.12-2.5-2.51,1.12-2.51,2.5-2.51,2.51,1.13,2.51,2.51Z"/>
    <path class="cls-2" d="M43.92,43.72c.11.25,0,.55-.25.66-1.81.81-3.81,1.24-5.79,1.24s-3.98-.43-5.78-1.24c-.26-.11-.37-.41-.26-.66.12-.25.41-.37.67-.25,3.35,1.51,7.39,1.5,10.75,0,.25-.12.55,0,.66.25Z"/>
    <path class="cls-2" d="M49.15,37.89c0,1.39-1.12,2.51-2.51,2.51s-2.5-1.12-2.5-2.51,1.12-2.51,2.5-2.51,2.51,1.13,2.51,2.51Z"/>
    <g>
      <g>
        <path class="cls-3" d="M31.63,37.89c0,1.39-1.12,2.51-2.51,2.51s-2.5-1.12-2.5-2.51,1.12-2.51,2.5-2.51,2.51,1.13,2.51,2.51Z"/>
        <path class="cls-3" d="M49.15,37.89c0,1.39-1.12,2.51-2.51,2.51s-2.5-1.12-2.5-2.51,1.12-2.51,2.5-2.51,2.51,1.13,2.51,2.51Z"/>
      </g>
      <path class="cls-3" d="M43.67,44.38c-1.81.81-3.81,1.24-5.79,1.24s-3.98-.43-5.78-1.24c-.26-.11-.37-.41-.26-.66.12-.25.41-.37.67-.25,3.35,1.51,7.39,1.5,10.75,0,.25-.12.55,0,.66.25s0,.55-.25.66Z"/>
    </g>
  </g>
  <g>
    <path class="cls-3" d="M46.61,101.39c-4.62,0-6.93-2.32-6.93-6.97v-14.12h3.87v14.12c0,1.08.25,1.9.75,2.45s1.29.82,2.37.82c2.08,0,3.12-1.09,3.12-3.27v-14.12h3.87v14.12c0,2.32-.6,4.07-1.79,5.23s-2.95,1.74-5.25,1.74Z"/>
    <path class="cls-3" d="M62.55,80.3h-5.29v20.8h5.29c6.51,0,9.77-3.37,9.77-10.11,0-7.13-3.26-10.69-9.77-10.69ZM66.83,95.76c-.95,1.09-2.38,1.63-4.28,1.63h-1.42v-13.4h1.42c1.9,0,3.33.59,4.28,1.77.96,1.18,1.43,2.93,1.43,5.23,0,2.09-.47,3.68-1.43,4.77Z"/>
    <path class="cls-3" d="M87.55,82.14c-1.42-1.23-3.44-1.84-6.05-1.84h-6.37v20.8h3.87v-5.96h2.5c2.61,0,4.63-.68,6.05-2.05,1.43-1.36,2.14-3.28,2.14-5.76,0-2.24-.71-3.97-2.14-5.19ZM84.47,90.52c-.7.71-1.69,1.06-2.97,1.06h-2.5v-7.72h2.5c1.28,0,2.27.32,2.97.96.7.65,1.05,1.57,1.05,2.76,0,1.26-.35,2.24-1.05,2.94Z"/>
    <path class="cls-1" d="M101.57,101.39c-6.63,0-9.95-3.57-9.95-10.72,0-3.39.83-6.01,2.5-7.87,1.67-1.86,4.03-2.79,7.09-2.79,1.38,0,2.6.22,3.66.67,1.06.45,1.87,1.08,2.42,1.9l-2.17,2.83c-.44-.55-1-.97-1.68-1.27-.68-.3-1.41-.45-2.2-.45-1.68,0-3.02.59-4.04,1.78-1.01,1.19-1.52,2.87-1.52,5.06,0,4.79,2.12,7.18,6.37,7.18,1.42,0,2.81-.29,4.19-.88l.67,3.57c-1.7.66-3.49,1-5.36,1Z"/>
    <path class="cls-1" d="M123.56,90.99v10.11h-3.97v-9.38c0-.87-.19-1.54-.58-2-.39-.47-.93-.71-1.65-.71-1.99,0-2.99,1.37-2.99,4.09v8h-3.97v-21.97h3.97v9.25h.39c.14-1.04.5-1.82,1.06-2.33.57-.52,1.43-.77,2.58-.77,1.64,0,2.91.5,3.81,1.49.9,1,1.35,2.4,1.35,4.22Z"/>
    <path class="cls-1" d="M137.02,94.62v.18s0,.07-.01.1h.02v-.28ZM136.8,97.82c.03-.15.04-.31.04-.47l-.51.47h.47Z"/>
    <path class="cls-1" d="M140.83,97.55v-5.74c0-2.05-.68-3.61-2.05-4.68s-3.46-1.62-6.27-1.66l-3.39-.05-.29,3.61,3.97.1c1.4.04,2.45.25,3.16.64.71.38,1.06.99,1.06,1.82v.05c-.32-.08-.65-.13-.97-.18-.62-.09-1.36-.13-2.21-.13-2.21,0-3.91.46-5.11,1.39s-1.8,2.26-1.8,4c0,1.49.46,2.64,1.37,3.46.92.81,2.21,1.21,3.86,1.21.95,0,1.78-.15,2.47-.45.68-.29,1.22-.74,1.6-1.34.31-.49.51-1.08.57-1.78h-.47l.51-.47c0,.16-.01.32-.04.47h.37l.25,3.42,5.56-.14v-3.22l-2.15-.33ZM137.01,94.9c0,.5-.15.97-.42,1.44-.29.5-.72.91-1.3,1.23-.57.32-1.29.48-2.15.48-.71,0-1.26-.14-1.63-.42-.37-.27-.55-.68-.55-1.2,0-1.18,1.02-1.76,3.07-1.76.55,0,1.07.01,1.57.03.43.03.89.09,1.41.2.01-.03.01-.07.01-.1v-.18.28h-.01Z"/>
    <path class="cls-1" d="M159.27,101.04c-.64.12-1.27.2-1.88.26-.61.06-1.26.09-1.96.09-2.67,0-4.61-.54-5.8-1.61-1.19-1.07-1.78-2.79-1.78-5.16v-5.4h-3.73v-3.65h3.73v-4.69h3.95v4.69h6.89v3.65h-6.89v5.02c0,1.18.31,2.04.92,2.58.61.54,1.61.81,3.01.81.45,0,.93-.03,1.44-.08.51-.06,1.1-.13,1.75-.22l.35,3.71Z"/>
    <path class="cls-3" d="M161.34,101.09l6.01-20.8h4.75l6.01,20.8h-4.18l-4.07-15.72h-.26l-4.07,15.72h-4.17ZM164.37,97.15v-3.57h10.55v3.57h-10.55Z"/>
    <path class="cls-3" d="M180.72,83.76v-3.47h13.15v3.47h-13.15ZM180.72,101.09v-3.49h13.15v3.49h-13.15ZM185.35,101.09v-20.8h3.87v20.8h-3.87Z"/>
  </g>
</svg>