<?xml version="1.0" encoding="UTF-8"?>
<svg id="Layer_1" data-name="Layer 1" xmlns="http://www.w3.org/2000/svg" viewBox="0 0 75.76 81">
  <defs>
    <style>
      .cls-1 {
        fill: #fff;
      }

      .cls-2 {
        fill: #00aeef;
      }
    </style>
  </defs>
  <path class="cls-2" d="M31.63,37.89c0,1.39-1.12,2.51-2.51,2.51s-2.5-1.12-2.5-2.51,1.12-2.51,2.5-2.51,2.51,1.13,2.51,2.51Z"/>
  <path class="cls-2" d="M43.92,43.72c.11.25,0,.55-.25.66-1.81.81-3.81,1.24-5.79,1.24s-3.98-.43-5.78-1.24c-.26-.11-.37-.41-.26-.66.12-.25.41-.37.67-.25,3.35,1.51,7.39,1.5,10.75,0,.25-.12.55,0,.66.25Z"/>
  <path class="cls-2" d="M49.15,37.89c0,1.39-1.12,2.51-2.51,2.51s-2.5-1.12-2.5-2.51,1.12-2.51,2.5-2.51,2.51,1.13,2.51,2.51Z"/>
  <path class="cls-2" d="M38.76,17.37l-.85-14.96c.65-.02,1.17-.55,1.17-1.21s-.54-1.2-1.2-1.2-1.21.54-1.21,1.2.52,1.19,1.18,1.21l-.85,14.96C16.49,17.67,0,28.64,0,42.12c0,8.03,5.85,15.17,14.91,19.69,2.37,1.19,4.96,2.19,7.73,2.99,1.03.3,1.71,1.29,1.63,2.37l-.93,13.83,12.89-12.52c1.02-.99,2.36-1.58,3.77-1.64,19.93-.72,35.76-11.51,35.76-24.72s-16.49-24.45-37-24.75ZM57.87,47.5c-1.8,1.79-4.27,2.91-7,2.91h-25.98c-5.45,0-9.91-4.46-9.91-9.91,0-2.73,1.12-5.2,2.91-7,1.8-1.79,4.27-2.91,7-2.91h25.98c5.45,0,9.91,4.46,9.91,9.91,0,2.73-1.12,5.2-2.91,7Z"/>
  <path class="cls-1" d="M31.63,37.89c0,1.39-1.12,2.51-2.51,2.51s-2.5-1.12-2.5-2.51,1.12-2.51,2.5-2.51,2.51,1.13,2.51,2.51Z"/>
  <path class="cls-1" d="M43.92,43.72c.11.25,0,.55-.25.66-1.81.81-3.81,1.24-5.79,1.24s-3.98-.43-5.78-1.24c-.26-.11-.37-.41-.26-.66.12-.25.41-.37.67-.25,3.35,1.51,7.39,1.5,10.75,0,.25-.12.55,0,.66.25Z"/>
  <path class="cls-1" d="M49.15,37.89c0,1.39-1.12,2.51-2.51,2.51s-2.5-1.12-2.5-2.51,1.12-2.51,2.5-2.51,2.51,1.13,2.51,2.51Z"/>
  <g>
    <g>
      <path class="cls-2" d="M31.63,37.89c0,1.39-1.12,2.51-2.51,2.51s-2.5-1.12-2.5-2.51,1.12-2.51,2.5-2.51,2.51,1.13,2.51,2.51Z"/>
      <path class="cls-2" d="M49.15,37.89c0,1.39-1.12,2.51-2.51,2.51s-2.5-1.12-2.5-2.51,1.12-2.51,2.5-2.51,2.51,1.13,2.51,2.51Z"/>
    </g>
    <path class="cls-2" d="M43.67,44.38c-1.81.81-3.81,1.24-5.79,1.24s-3.98-.43-5.78-1.24c-.26-.11-.37-.41-.26-.66.12-.25.41-.37.67-.25,3.35,1.51,7.39,1.5,10.75,0,.25-.12.55,0,.66.25s0,.55-.25.66Z"/>
  </g>
</svg>